<?xml version="1.0" encoding="utf-8"?>
<!-- Generator: Adobe Illustrator 24.0.2, SVG Export Plug-In . SVG Version: 6.00 Build 0)  -->
<svg version="1.1" id="Layer_1" xmlns="http://www.w3.org/2000/svg" xmlns:xlink="http://www.w3.org/1999/xlink" x="0px" y="0px"
	 viewBox="0 0 100 100" style="enable-background:new 0 0 100 100;" xml:space="preserve">
<style type="text/css">
	.st0{fill:#FBB54D;}
	.st1{fill:#767576;}
	.st2{fill:#EEEEEE;}
	.st3{fill:#FFC00E;}
</style>
<g>
	<path d="M85.3,40.6c-0.8,0-1.7,0.1-2.5,0.3c-2.9-3.4-7.3-5.6-12.2-5.6c-3.3,0-6.3,1-8.8,2.7V19.1c0-2.4-2-4.4-4.4-4.4h-6.2
		c-0.6-1.8-2.3-2.9-4.1-2.9h-7.9c-1.2-3.5-4.6-5.9-8.3-5.9c-3.7,0-7.1,2.4-8.3,5.9h-7.9c-1.9,0-3.5,1.2-4.1,2.9H4.4
		c-2.4,0-4.4,2-4.4,4.4v70.6c0,2.4,2,4.4,4.4,4.4h60.4l0,0h21.7c3,0,5.5-2.4,5.5-5.5V68.4c4.9-2.5,8-7.5,8-13.1
		C100,47.2,93.4,40.6,85.3,40.6z"/>
	<path class="st0" d="M51.5,17.6h5.9c0.8,0,1.5,0.7,1.5,1.5v21.3c-0.1,0.1-0.3,0.3-0.4,0.5c-0.9-0.2-1.7-0.3-2.5-0.3l0,0V23.5
		c0-1.6-1.3-2.9-2.9-2.9h-1.5L51.5,17.6L51.5,17.6z"/>
	<path class="st1" d="M13.2,16.2c0-0.8,0.7-1.5,1.5-1.5h9h0.1c0.1,0,0.2,0,0.3-0.1c0.1,0,0.2-0.1,0.3-0.1c0.2-0.1,0.4-0.3,0.6-0.6
		c0-0.1,0.1-0.2,0.1-0.3c0,0,0-0.1,0.1-0.1c0.6-2.7,3-4.7,5.8-4.7s5.2,2,5.8,4.7c0,0.1,0,0.1,0.1,0.2c0,0.1,0.1,0.1,0.1,0.2
		c0,0.1,0.1,0.2,0.2,0.3c0,0.1,0.1,0.1,0.1,0.2c0.1,0.1,0.2,0.1,0.3,0.2c0.2,0.1,0.5,0.2,0.7,0.2h9c0.8,0,1.5,0.7,1.5,1.5v5.9
		c0,0.8-0.7,1.5-1.5,1.5H14.9c-0.8,0-1.5-0.7-1.5-1.5v-6H13.2z"/>
	<path class="st2" d="M14.7,26.5h32.4c1.9,0,3.5-1.2,4.1-2.9h1.7V41c-6.7,1.4-11.8,7.3-11.8,14.4c0,5.6,3.1,10.6,8.1,13.1v16.8H8.8
		V23.5h1.7C11.2,25.3,12.8,26.5,14.7,26.5z"/>
	<path class="st0" d="M2.9,89.7V19.1c0-0.8,0.7-1.5,1.5-1.5h5.9v2.9H8.8c-1.6,0-2.9,1.3-2.9,2.9v61.8c0,1.6,1.3,2.9,2.9,2.9h40.4
		v0.4c0,0.9,0.2,1.8,0.6,2.5H4.4C3.6,91.2,2.9,90.5,2.9,89.7z"/>
	<path class="st2" d="M89.3,88.7c0,1.5-1.2,2.8-2.8,2.8H54.6c-0.7,0-1.4-0.3-2-0.8c-0.5-0.5-0.8-1.2-0.8-2v-5.2h37.4L89.3,88.7
		L89.3,88.7z"/>
	<path class="st2" d="M90.1,66.4c-0.1,0-0.1,0.1-0.2,0.1c-0.2,0.1-0.3,0.2-0.4,0.4c-0.1,0.2-0.2,0.3-0.2,0.5c0,0.1,0,0.1,0,0.2v13.1
		H51.9V67.6c0-0.1,0-0.1,0-0.2c0-0.2-0.1-0.4-0.2-0.6s-0.2-0.3-0.4-0.4c-0.1,0-0.1-0.1-0.2-0.1c-4.4-1.9-7.2-6.2-7.2-11
		c0-6.6,5.4-12,12-12c0.3,0,0.5,0,0.8,0.1c-1.4,2.4-2.1,5.1-2.1,8c0,0.7,0.6,1.3,1.3,1.3c0.7,0,1.3-0.6,1.3-1.3
		c0-7.4,6-13.4,13.4-13.4C78,38,84,44,84,51.3c0,0.7,0.6,1.3,1.3,1.3c0.7,0,1.3-0.6,1.3-1.3c0-2.9-0.8-5.6-2.1-8
		c0.3,0,0.5-0.1,0.8-0.1c6.6,0,12,5.4,12,12C97.3,60.1,94.5,64.4,90.1,66.4z"/>
	<path d="M17.6,20.6h1.5c0.8,0,1.5-0.7,1.5-1.5s-0.7-1.5-1.5-1.5h-1.5c-0.8,0-1.5,0.7-1.5,1.5C16.2,19.9,16.8,20.6,17.6,20.6z"/>
	<path d="M25,20.6h19.1c0.8,0,1.5-0.7,1.5-1.5s-0.7-1.5-1.5-1.5H25c-0.8,0-1.5,0.7-1.5,1.5S24.2,20.6,25,20.6z"/>
	<path d="M19.1,30.9h-4.4c-1.6,0-2.9,1.3-2.9,2.9v4.4c0,1.6,1.3,2.9,2.9,2.9h4.4c1.6,0,2.9-1.3,2.9-2.9v-4.4
		C22.1,32.2,20.7,30.9,19.1,30.9z"/>
	<rect x="14.7" y="33.8" class="st3" width="4.4" height="4.4"/>
	<path d="M19.1,44.1h-4.4c-1.6,0-2.9,1.3-2.9,2.9v4.4c0,1.6,1.3,2.9,2.9,2.9h4.4c1.6,0,2.9-1.3,2.9-2.9V47
		C22.1,45.4,20.7,44.1,19.1,44.1z"/>
	<rect x="14.7" y="47.1" class="st3" width="4.4" height="4.4"/>
	<path d="M19.1,57.4h-4.4c-1.6,0-2.9,1.3-2.9,2.9v4.4c0,1.6,1.3,2.9,2.9,2.9h4.4c1.6,0,2.9-1.3,2.9-2.9v-4.4
		C22.1,58.7,20.7,57.4,19.1,57.4z"/>
	<rect x="14.7" y="60.3" class="st3" width="4.4" height="4.4"/>
	<path d="M19.1,70.6h-4.4c-1.6,0-2.9,1.3-2.9,2.9v4.4c0,1.6,1.3,2.9,2.9,2.9h4.4c1.6,0,2.9-1.3,2.9-2.9v-4.4
		C22.1,71.9,20.7,70.6,19.1,70.6z"/>
	<rect x="14.7" y="73.5" class="st3" width="4.4" height="4.4"/>
	<path d="M26.5,38.2h20.6c0.8,0,1.5-0.7,1.5-1.5s-0.7-1.5-1.5-1.5H26.5c-0.8,0-1.5,0.7-1.5,1.5C25,37.6,25.7,38.2,26.5,38.2z"/>
	<path d="M38.5,48.5h-12c-0.8,0-1.5,0.7-1.5,1.5s0.7,1.5,1.5,1.5h12c0.8,0,1.5-0.7,1.5-1.5C39.9,49.2,39.3,48.5,38.5,48.5z"/>
	<path d="M38.8,61.8H26.1c-0.8,0-1.5,0.7-1.5,1.5s0.7,1.5,1.5,1.5h12.7c0.8,0,1.5-0.7,1.5-1.5C40.3,62.4,39.6,61.8,38.8,61.8z"/>
	<path d="M39.7,75H26.5c-0.8,0-1.5,0.7-1.5,1.5s0.7,1.5,1.5,1.5h13.2c0.8,0,1.5-0.7,1.5-1.5S40.5,75,39.7,75z"/>
	<path d="M60.9,70.5c0.5,0.6,0.4,1.4-0.2,1.9c-0.2,0.2-0.5,0.3-0.8,0.3c-0.4,0-0.8-0.2-1-0.5c-0.4-0.5-4.3-5.4-4.3-8.9
		c0-0.7,0.6-1.3,1.3-1.3c0.7,0,1.3,0.6,1.3,1.3C57.2,65.3,59.5,68.8,60.9,70.5z"/>
	<path d="M86.6,63.4c0,3.5-3.9,8.3-4.3,8.9c-0.3,0.3-0.6,0.5-1,0.5c-0.3,0-0.6-0.1-0.8-0.3c-0.6-0.5-0.7-1.3-0.2-1.9
		c1.4-1.8,3.7-5.2,3.7-7.2c0-0.7,0.6-1.3,1.3-1.3C86,62,86.6,62.6,86.6,63.4z"/>
	<path d="M71.9,63.4v8c0,0.7-0.6,1.3-1.3,1.3c-0.7,0-1.3-0.6-1.3-1.3v-8c0-0.7,0.6-1.3,1.3-1.3C71.3,62,71.9,62.6,71.9,63.4z"/>
</g>
</svg>
