<?xml version="1.0" encoding="utf-8"?>
<!-- Generator: Adobe Illustrator 24.0.2, SVG Export Plug-In . SVG Version: 6.00 Build 0)  -->
<svg version="1.1" id="Layer_1" xmlns="http://www.w3.org/2000/svg" xmlns:xlink="http://www.w3.org/1999/xlink" x="0px" y="0px"
	 viewBox="0 0 100 100" style="enable-background:new 0 0 100 100;" xml:space="preserve">
<style type="text/css">
	.st0{display:none;}
	.st1{fill:#EEEEEE;}
	.st2{fill:#FBB54D;}
	.st3{fill:#767576;}
	.st4{fill:#FFC00E;}
</style>
<path class="st0" d="M98.2,89.1H88l-2.5-23.4l2.7,4.1l0.7,3.4c0.3,1.6,1.4,3,2.8,3.8c0.8,0.4,1.7,0.7,2.7,0.7c0.7,0,1.4-0.1,2.1-0.4
	c1.4-0.6,2.6-1.7,3.1-3.2c0.6-1.5,0.5-3.1-0.2-4.5L98,66.7c0,0,0,0,0,0c0,0,0,0,0,0L88,48.4c-0.2-0.3-0.5-0.6-0.8-0.7l-4.5-1.8
	c3.4-2.7,5.6-6.9,5.6-11.6c0-2.5-0.7-5-1.9-7.2l-0.9-8.6c2.7-1.1,4.4-3.4,4.4-5.9c0-3.6-3.6-6.5-8-6.7c-1.8-3.1-5-5-8.6-5
	c-3.6,0-6.9,1.9-8.6,5c-4.4,0.1-8,3.1-8,6.7c0,2.5,1.7,4.7,4.4,5.9L60.1,27c-1.2,2.2-1.9,4.7-1.9,7.2c0,4.7,2.2,8.9,5.6,11.6
	l-4.5,1.8c-0.3,0.1-0.5,0.3-0.7,0.5l-5.6,7l-6.8-5.4l-1.8-3c-0.3-0.5-0.7-1-1.1-1.3v-4.5c0-2.2-1.4-4-3.3-4.7v-7h1.7
	c2.8,0,5-2.2,5-5v-10c0-2.8-2.2-5-5-5h-6.7c-2.8,0-5,2.2-5,5v10c0,2.8,2.2,5,5,5h1.7v7c-1.9,0.7-3.3,2.5-3.3,4.7v6.7c0,0,0,0,0,0
	c-0.4,1-0.6,2.1-0.5,3.2c0.2,1.9,1.3,3.6,3,4.6l3.1,1.9L50,66.9c1.9,1.6,4.6,1.7,6.5,0.1l4.7-3.9l-2.7,26H29.3l2-3.9
	c3.1-1.2,5.3-4.2,5.3-7.7v-3.6c1.9-0.7,3.3-2.5,3.3-4.7c0-2.8-2.2-5-5-5H5c-2.8,0-5,2.2-5,5c0,2.2,1.4,4,3.3,4.7v3.6
	c0,3.5,2.2,6.5,5.3,7.7l2,3.9h-9c-0.9,0-1.7,0.7-1.7,1.7v6.7c0,0.9,0.7,1.7,1.7,1.7h96.5c0.9,0,1.7-0.7,1.7-1.7v-6.7
	C99.8,89.8,99.1,89.1,98.2,89.1z M36.6,25.9h-1.7c-0.9,0-1.7-0.7-1.7-1.7v-10c0-0.9,0.7-1.7,1.7-1.7h1.7V25.9z M96.4,71.1
	c0.3,0.6,0.3,1.2,0.1,1.8c-0.2,0.6-0.7,1.1-1.3,1.3c-0.6,0.2-1.3,0.2-1.9-0.1c-0.6-0.3-1-0.9-1.1-1.5l-0.4-2.1l3.8-1L96.4,71.1z
	 M85.3,50.5L94,66.4l-3.4,0.9l-5.8-8.8l-2.4-9.2L85.3,50.5z M81.7,60.8l3,28.3H61.7l3-28.3H81.7z M65.4,57.5l2.5-9.3
	c0.1,0,0.1,0,0.2,0.1c0.3,0.1,0.7,0.2,1,0.3c0.1,0,0.3,0.1,0.4,0.1c0.3,0.1,0.6,0.2,1,0.2c0.2,0,0.3,0,0.5,0.1
	c0.3,0,0.6,0.1,0.9,0.1c0.2,0,0.4,0,0.6,0c0.3,0,0.5,0,0.8,0c0.3,0,0.5,0,0.8,0c0.2,0,0.4,0,0.6,0c0.3,0,0.6-0.1,0.9-0.1
	c0.2,0,0.3,0,0.5-0.1c0.3-0.1,0.6-0.1,1-0.2c0.1,0,0.3-0.1,0.4-0.1c0.3-0.1,0.7-0.2,1-0.3c0.1,0,0.1,0,0.2-0.1l2.5,9.3H65.4z
	 M59.9,12.6c0-1.8,2.3-3.3,5-3.3c0.1,0,0.2,0,0.3,0l0.3,0c0.7,0,1.4-0.3,1.7-1c1.1-2.5,3.5-4,6.1-4s5.1,1.6,6.1,4
	c0.3,0.7,1,1.1,1.7,1l0.3,0c0.1,0,0.2,0,0.3,0c2.7,0,5,1.5,5,3.3c0,1.3-1.3,2.6-3.3,3.1c-0.8,0.2-1.3,1-1.2,1.8l1,10.1H63.4l1-10.1
	c0.1-0.8-0.4-1.6-1.2-1.8C61.2,15.2,59.9,13.9,59.9,12.6z M61.6,34.2c0-1.1,0.2-2.2,0.5-3.3h22.3c0.3,1.1,0.5,2.2,0.5,3.3
	c0,4.6-2.7,8.6-6.6,10.5c-0.4,0.2-0.8,0.3-1.2,0.5c0,0,0,0-0.1,0c-2.5,0.9-5.2,0.9-7.6,0c0,0,0,0-0.1,0c-0.4-0.1-0.8-0.3-1.2-0.5
	C64.3,42.8,61.6,38.8,61.6,34.2z M39.9,12.6h1.7c0.9,0,1.7,0.7,1.7,1.7v10c0,0.9-0.7,1.7-1.7,1.7h-1.7V12.6z M38.3,39.2
	c0.9,0,1.7,0.7,1.7,1.7v2.9c0,0,0,0,0,0c0,0-0.1,0-0.1,0c-0.1,0-0.2,0-0.3,0c-0.3,0-0.6,0-0.9,0c-0.1,0-0.3,0-0.4,0
	c-0.3,0-0.7,0.1-1,0.2c-0.1,0-0.3,0.1-0.4,0.1c-0.1,0-0.1,0-0.2,0.1v-3.3h0C36.6,39.9,37.4,39.2,38.3,39.2z M37.5,52.4
	c-0.8-0.5-1.3-1.3-1.4-2.2c-0.1-0.6,0-1.2,0.3-1.7c0,0,0,0,0,0c0.1-0.1,0.1-0.3,0.2-0.4c0.1-0.1,0.2-0.3,0.3-0.4
	c0.2-0.2,0.5-0.4,0.8-0.6c0,0,0,0,0.1,0c0.3-0.1,0.6-0.2,0.9-0.2c0,0,0,0,0.1,0c0.3,0,0.6,0,0.9,0.1c0,0,0.1,0,0.1,0
	c0.3,0.1,0.6,0.2,0.9,0.4c0,0,0,0,0,0c0.3,0.2,0.6,0.5,0.8,0.9l1.3,2.2l-3.2,3.2L37.5,52.4z M54.4,64.4c-0.6,0.5-1.5,0.5-2.2,0
	l-9.8-8.6l2.7-2.7l7.2,5.7c0.7,0.6,1.8,0.5,2.3-0.3l6.4-8l3.2-1.3l-2.4,8.9L54.4,64.4z M5,70.8c-0.9,0-1.7-0.7-1.7-1.7
	c0-0.9,0.7-1.7,1.7-1.7h29.9c0.9,0,1.7,0.7,1.7,1.7c0,0.9-0.7,1.7-1.7,1.7H5z M6.7,77.5v-3.3h26.6v3.3c0,2.8-2.2,5-5,5H11.6
	C8.9,82.4,6.7,80.2,6.7,77.5z M27.3,85.8l-1.7,3.3h-4v-3.3H27.3z M18.3,85.8v3.3h-4l-1.7-3.3H18.3z M96.5,95.8H3.3v-3.3h10h13.3
	h33.3h26.6h10V95.8z"/>
<path d="M98.2,89.1H88l-2.5-23.4l2.7,4.1l0.7,3.4c0.3,1.6,1.4,3,2.8,3.8c0.8,0.4,1.7,0.7,2.7,0.7c0.7,0,1.4-0.1,2.1-0.4
	c1.4-0.6,2.6-1.7,3.1-3.2c0.6-1.5,0.5-3.1-0.2-4.5L98,66.7c0,0,0,0,0,0c0,0,0,0,0,0L88,48.4c-0.2-0.3-0.5-0.6-0.8-0.7l-4.5-1.8
	c3.4-2.7,5.6-6.9,5.6-11.6c0-2.5-0.7-5-1.9-7.2l-0.9-8.6c2.7-1.1,4.4-3.4,4.4-5.9c0-3.6-3.6-6.5-8-6.7c-1.8-3.1-5-5-8.6-5
	c-3.6,0-6.9,1.9-8.6,5c-4.4,0.1-8,3.1-8,6.7c0,2.5,1.7,4.7,4.4,5.9L60.1,27c-1.2,2.2-1.9,4.7-1.9,7.2c0,4.7,2.2,8.9,5.6,11.6
	l-4.5,1.8c-0.3,0.1-0.5,0.3-0.7,0.5l-5.6,7l-6.8-5.4l-1.8-3c-0.3-0.5-0.7-1-1.1-1.3v-4.5c0-2.2-1.4-4-3.3-4.7v-7h1.7
	c2.8,0,5-2.2,5-5v-10c0-2.8-2.2-5-5-5h-6.7c-2.8,0-5,2.2-5,5v10c0,2.8,2.2,5,5,5h1.7v7c-1.9,0.7-3.3,2.5-3.3,4.7v6.7c0,0,0,0,0,0
	c-0.4,1-0.6,2.1-0.5,3.2c0.2,1.9,1.3,3.6,3,4.6l3.1,1.9L50,66.9c1.9,1.6,4.6,1.7,6.5,0.1l4.7-3.9l-2.7,26H29.3l2-3.9
	c3.1-1.2,5.3-4.2,5.3-7.7v-3.6c1.9-0.7,3.3-2.5,3.3-4.7c0-2.8-2.2-5-5-5H5c-2.8,0-5,2.2-5,5c0,2.2,1.4,4,3.3,4.7v3.6
	c0,3.5,2.2,6.5,5.3,7.7l2,3.9h-9c-0.9,0-1.7,0.7-1.7,1.7v6.7c0,0.9,0.7,1.7,1.7,1.7h96.5c0.9,0,1.7-0.7,1.7-1.7v-6.7
	C99.8,89.8,99.1,89.1,98.2,89.1z"/>
<path class="st1" d="M36.6,25.9h-1.7c-0.9,0-1.7-0.7-1.7-1.7v-10c0-0.9,0.7-1.7,1.7-1.7h1.7V25.9z"/>
<path class="st2" d="M96.4,71.1c0.3,0.6,0.3,1.2,0.1,1.8c-0.2,0.6-0.7,1.1-1.3,1.3c-0.6,0.2-1.3,0.2-1.9-0.1c-0.6-0.3-1-0.9-1.1-1.5
	l-0.4-2.1l3.8-1L96.4,71.1z"/>
<polygon class="st3" points="85.3,50.5 94,66.4 90.6,67.2 84.7,58.5 82.3,49.3 "/>
<polygon class="st1" points="81.7,60.8 84.7,89.1 61.7,89.1 64.7,60.8 "/>
<path class="st3" d="M65.4,57.5l2.5-9.3c0.1,0,0.1,0,0.2,0.1c0.3,0.1,0.7,0.2,1,0.3c0.1,0,0.3,0.1,0.4,0.1c0.3,0.1,0.6,0.2,1,0.2
	c0.2,0,0.3,0,0.5,0.1c0.3,0,0.6,0.1,0.9,0.1c0.2,0,0.4,0,0.6,0c0.3,0,0.5,0,0.8,0c0.3,0,0.5,0,0.8,0c0.2,0,0.4,0,0.6,0
	c0.3,0,0.6-0.1,0.9-0.1c0.2,0,0.3,0,0.5-0.1c0.3-0.1,0.6-0.1,1-0.2c0.1,0,0.3-0.1,0.4-0.1c0.3-0.1,0.7-0.2,1-0.3
	c0.1,0,0.1,0,0.2-0.1l2.5,9.3H65.4z"/>
<path class="st1" d="M59.9,12.6c0-1.8,2.3-3.3,5-3.3c0.1,0,0.2,0,0.3,0l0.3,0c0.7,0,1.4-0.3,1.7-1c1.1-2.5,3.5-4,6.1-4
	s5.1,1.6,6.1,4c0.3,0.7,1,1.1,1.7,1l0.3,0c0.1,0,0.2,0,0.3,0c2.7,0,5,1.5,5,3.3c0,1.3-1.3,2.6-3.3,3.1c-0.8,0.2-1.3,1-1.2,1.8
	l1,10.1H63.4l1-10.1c0.1-0.8-0.4-1.6-1.2-1.8C61.2,15.2,59.9,13.9,59.9,12.6z"/>
<path class="st2" d="M61.6,34.2c0-1.1,0.2-2.2,0.5-3.3h22.3c0.3,1.1,0.5,2.2,0.5,3.3c0,4.6-2.7,8.6-6.6,10.5
	c-0.4,0.2-0.8,0.3-1.2,0.5c0,0,0,0-0.1,0c-2.5,0.9-5.2,0.9-7.6,0c0,0,0,0-0.1,0c-0.4-0.1-0.8-0.3-1.2-0.5
	C64.3,42.8,61.6,38.8,61.6,34.2z"/>
<path class="st1" d="M39.9,12.6h1.7c0.9,0,1.7,0.7,1.7,1.7v10c0,0.9-0.7,1.7-1.7,1.7h-1.7V12.6z"/>
<path class="st1" d="M38.3,39.2c0.9,0,1.7,0.7,1.7,1.7v2.9c0,0,0,0,0,0c0,0-0.1,0-0.1,0c-0.1,0-0.2,0-0.3,0c-0.3,0-0.6,0-0.9,0
	c-0.1,0-0.3,0-0.4,0c-0.3,0-0.7,0.1-1,0.2c-0.1,0-0.3,0.1-0.4,0.1c-0.1,0-0.1,0-0.2,0.1v-3.3h0C36.6,39.9,37.4,39.2,38.3,39.2z"/>
<path class="st2" d="M37.5,52.4c-0.8-0.5-1.3-1.3-1.4-2.2c-0.1-0.6,0-1.2,0.3-1.7c0,0,0,0,0,0c0.1-0.1,0.1-0.3,0.2-0.4
	c0.1-0.1,0.2-0.3,0.3-0.4c0.2-0.2,0.5-0.4,0.8-0.6c0,0,0,0,0.1,0c0.3-0.1,0.6-0.2,0.9-0.2c0,0,0,0,0.1,0c0.3,0,0.6,0,0.9,0.1
	c0,0,0.1,0,0.1,0c0.3,0.1,0.6,0.2,0.9,0.4c0,0,0,0,0,0c0.3,0.2,0.6,0.5,0.8,0.9l1.3,2.2l-3.2,3.2L37.5,52.4z"/>
<path class="st3" d="M54.4,64.4c-0.6,0.5-1.5,0.5-2.2,0l-9.8-8.6l2.7-2.7l7.2,5.7c0.7,0.6,1.8,0.5,2.3-0.3l6.4-8l3.2-1.3l-2.4,8.9
	L54.4,64.4z"/>
<path class="st1" d="M5,70.8c-0.9,0-1.7-0.7-1.7-1.7c0-0.9,0.7-1.7,1.7-1.7h29.9c0.9,0,1.7,0.7,1.7,1.7c0,0.9-0.7,1.7-1.7,1.7H5z"/>
<path class="st1" d="M6.7,77.5v-3.3h26.6v3.3c0,2.8-2.2,5-5,5H11.6C8.9,82.4,6.7,80.2,6.7,77.5z"/>
<polygon class="st4" points="27.3,85.8 25.6,89.1 21.6,89.1 21.6,85.8 "/>
<polygon class="st4" points="18.3,85.8 18.3,89.1 14.3,89.1 12.7,85.8 "/>
<polygon class="st3" points="96.5,95.8 3.3,95.8 3.3,92.4 13.3,92.4 26.6,92.4 59.9,92.4 86.5,92.4 96.5,92.4 "/>
</svg>
