<?xml version="1.0" encoding="utf-8"?>
<!-- Generator: Adobe Illustrator 24.0.2, SVG Export Plug-In . SVG Version: 6.00 Build 0)  -->
<svg version="1.1" id="Layer_1" xmlns="http://www.w3.org/2000/svg" xmlns:xlink="http://www.w3.org/1999/xlink" x="0px" y="0px"
	 viewBox="0 0 100 100" style="enable-background:new 0 0 100 100;" xml:space="preserve">
<path d="M98.2,89.1H88l-2.5-23.4l2.7,4.1l0.7,3.4c0.3,1.6,1.4,3,2.8,3.8c0.8,0.4,1.7,0.7,2.7,0.7c0.7,0,1.4-0.1,2.1-0.4
	c1.4-0.6,2.6-1.7,3.1-3.2c0.6-1.5,0.5-3.1-0.2-4.5L98,66.7l0,0l0,0L88,48.4c-0.2-0.3-0.5-0.6-0.8-0.7l-4.5-1.8
	c3.4-2.7,5.6-6.9,5.6-11.6c0-2.5-0.7-5-1.9-7.2l-0.9-8.6c2.7-1.1,4.4-3.4,4.4-5.9c0-3.6-3.6-6.5-8-6.7c-1.8-3.1-5-5-8.6-5
	s-6.9,1.9-8.6,5c-4.4,0.1-8,3.1-8,6.7c0,2.5,1.7,4.7,4.4,5.9l-1,8.5c-1.2,2.2-1.9,4.7-1.9,7.2c0,4.7,2.2,8.9,5.6,11.6l-4.5,1.8
	c-0.3,0.1-0.5,0.3-0.7,0.5l-5.6,7l-6.8-5.4l-1.8-3c-0.3-0.5-0.7-1-1.1-1.3v-4.5c0-2.2-1.4-4-3.3-4.7v-7h1.7c2.8,0,5-2.2,5-5v-10
	c0-2.8-2.2-5-5-5H35c-2.8,0-5,2.2-5,5v10c0,2.8,2.2,5,5,5h1.7v7c-1.9,0.7-3.3,2.5-3.3,4.7v6.7l0,0c-0.4,1-0.6,2.1-0.5,3.2
	c0.2,1.9,1.3,3.6,3,4.6l3.1,1.9l11,9.6c1.9,1.6,4.6,1.7,6.5,0.1l4.7-3.9l-2.7,26H29.3l2-3.9c3.1-1.2,5.3-4.2,5.3-7.7v-3.6
	c1.9-0.7,3.3-2.5,3.3-4.7c0-2.8-2.2-5-5-5H5c-2.8,0-5,2.2-5,5c0,2.2,1.4,4,3.3,4.7v3.6c0,3.5,2.2,6.5,5.3,7.7l2,3.9h-9
	c-0.9,0-1.7,0.7-1.7,1.7v6.7c0,0.9,0.7,1.7,1.7,1.7h96.5c0.9,0,1.7-0.7,1.7-1.7v-6.7C99.8,89.8,99.1,89.1,98.2,89.1z M36.6,25.9
	h-1.7c-0.9,0-1.7-0.7-1.7-1.7v-10c0-0.9,0.7-1.7,1.7-1.7h1.7V25.9z M96.4,71.1c0.3,0.6,0.3,1.2,0.1,1.8c-0.2,0.6-0.7,1.1-1.3,1.3
	c-0.6,0.2-1.3,0.2-1.9-0.1c-0.6-0.3-1-0.9-1.1-1.5l-0.4-2.1l3.8-1L96.4,71.1z M85.3,50.5L94,66.4l-3.4,0.9l-5.8-8.8l-2.4-9.2
	L85.3,50.5z M81.7,60.8l3,28.3h-23l3-28.3H81.7z M65.4,57.5l2.5-9.3c0.1,0,0.1,0,0.2,0.1c0.3,0.1,0.7,0.2,1,0.3
	c0.1,0,0.3,0.1,0.4,0.1c0.3,0.1,0.6,0.2,1,0.2c0.2,0,0.3,0,0.5,0.1c0.3,0,0.6,0.1,0.9,0.1c0.2,0,0.4,0,0.6,0c0.3,0,0.5,0,0.8,0
	s0.5,0,0.8,0c0.2,0,0.4,0,0.6,0c0.3,0,0.6-0.1,0.9-0.1c0.2,0,0.3,0,0.5-0.1c0.3-0.1,0.6-0.1,1-0.2c0.1,0,0.3-0.1,0.4-0.1
	c0.3-0.1,0.7-0.2,1-0.3c0.1,0,0.1,0,0.2-0.1l2.5,9.3H65.4z M59.9,12.6c0-1.8,2.3-3.3,5-3.3c0.1,0,0.2,0,0.3,0h0.3
	c0.7,0,1.4-0.3,1.7-1c1.1-2.5,3.5-4,6.1-4s5.1,1.6,6.1,4c0.3,0.7,1,1.1,1.7,1h0.3c0.1,0,0.2,0,0.3,0c2.7,0,5,1.5,5,3.3
	c0,1.3-1.3,2.6-3.3,3.1c-0.8,0.2-1.3,1-1.2,1.8l1,10.1H63.4l1-10.1c0.1-0.8-0.4-1.6-1.2-1.8C61.2,15.2,59.9,13.9,59.9,12.6z
	 M61.6,34.2c0-1.1,0.2-2.2,0.5-3.3h22.3c0.3,1.1,0.5,2.2,0.5,3.3c0,4.6-2.7,8.6-6.6,10.5c-0.4,0.2-0.8,0.3-1.2,0.5c0,0,0,0-0.1,0
	c-2.5,0.9-5.2,0.9-7.6,0c0,0,0,0-0.1,0c-0.4-0.1-0.8-0.3-1.2-0.5C64.3,42.8,61.6,38.8,61.6,34.2z M39.9,12.6h1.7
	c0.9,0,1.7,0.7,1.7,1.7v10c0,0.9-0.7,1.7-1.7,1.7h-1.7V12.6z M38.3,39.2c0.9,0,1.7,0.7,1.7,1.7v2.9l0,0h-0.1c-0.1,0-0.2,0-0.3,0
	c-0.3,0-0.6,0-0.9,0c-0.1,0-0.3,0-0.4,0c-0.3,0-0.7,0.1-1,0.2c-0.1,0-0.3,0.1-0.4,0.1c-0.1,0-0.1,0-0.2,0.1v-3.3l0,0
	C36.6,39.9,37.4,39.2,38.3,39.2z M37.5,52.4c-0.8-0.5-1.3-1.3-1.4-2.2c-0.1-0.6,0-1.2,0.3-1.7l0,0c0.1-0.1,0.1-0.3,0.2-0.4
	c0.1-0.1,0.2-0.3,0.3-0.4c0.2-0.2,0.5-0.4,0.8-0.6c0,0,0,0,0.1,0c0.3-0.1,0.6-0.2,0.9-0.2c0,0,0,0,0.1,0c0.3,0,0.6,0,0.9,0.1h0.1
	c0.3,0.1,0.6,0.2,0.9,0.4l0,0c0.3,0.2,0.6,0.5,0.8,0.9l1.3,2.2l-3.2,3.2L37.5,52.4z M54.4,64.4c-0.6,0.5-1.5,0.5-2.2,0l-9.8-8.6
	l2.7-2.7l7.2,5.7c0.7,0.6,1.8,0.5,2.3-0.3l6.4-8l3.2-1.3l-2.4,8.9L54.4,64.4z M5,70.8c-0.9,0-1.7-0.7-1.7-1.7c0-0.9,0.7-1.7,1.7-1.7
	h29.9c0.9,0,1.7,0.7,1.7,1.7c0,0.9-0.7,1.7-1.7,1.7H5z M6.7,77.5v-3.3h26.6v3.3c0,2.8-2.2,5-5,5H11.6C8.9,82.4,6.7,80.2,6.7,77.5z
	 M27.3,85.8l-1.7,3.3h-4v-3.3H27.3z M18.3,85.8v3.3h-4l-1.7-3.3H18.3z M96.5,95.8H3.3v-3.3h10h13.3h33.3h26.6h10V95.8z"/>
</svg>
