<?xml version="1.0" encoding="utf-8"?>
<!-- Generator: Adobe Illustrator 24.0.2, SVG Export Plug-In . SVG Version: 6.00 Build 0)  -->
<svg version="1.1" id="Layer_1" xmlns="http://www.w3.org/2000/svg" xmlns:xlink="http://www.w3.org/1999/xlink" x="0px" y="0px"
	 viewBox="0 0 100 100" style="enable-background:new 0 0 100 100;" xml:space="preserve">
<style type="text/css">
	.st0{fill:#EEEEEE;}
	.st1{fill:#767576;}
	.st2{fill:#FBB54D;}
	.st3{fill:#FFC00E;}
</style>
<g>
	<g>
		<path id="XMLID_2479_" class="st0" d="M16,98h74.2V85.5H16c-3.5,0-6.2,2.8-6.2,6.2S12.6,98,16,98z"/>
		<path class="st1" d="M16,85.5h6.2V2H16c-3.5,0-6.3,2.8-6.3,6.2v83.6C9.8,88.3,12.6,85.5,16,85.5z"/>
		<rect x="22.3" y="2" class="st2" width="68" height="83.6"/>
		<path d="M90.2,0H16c-4.5,0-8.2,3.7-8.2,8.2v83.6c0,4.5,3.7,8.2,8.2,8.2h74.2c1.1,0,2-0.9,2-2V2C92.2,0.9,91.3,0,90.2,0z M16,3.9
			h4.3v31.6c0,1.1,0.9,2,2,2s2-0.9,2-2V3.9h64.1v79.7H24.2V53.1c0-1.1-0.9-2-2-2s-2,0.9-2,2v30.5H16c-1.6,0-3,0.4-4.3,1.2V8.2
			C11.7,5.8,13.6,3.9,16,3.9z M88.3,96.1H16c-2.4,0-4.3-1.9-4.3-4.3s1.9-4.3,4.3-4.3h72.3V96.1z M22.3,46.3c0.5,0,1-0.2,1.4-0.6
			c0.4-0.4,0.6-0.9,0.6-1.4s-0.2-1-0.6-1.4s-0.9-0.6-1.4-0.6s-1,0.2-1.4,0.6c-0.4,0.4-0.6,0.9-0.6,1.4s0.2,1,0.6,1.4
			S21.8,46.3,22.3,46.3z"/>
	</g>
	<g>
		<rect x="24.5" y="12" class="st2" width="63.5" height="63.5"/>
		<path class="st3" d="M49.9,59.6h12.8c-1.6,3.7-3.9,6.5-6.4,6.5C53.7,66.2,51.5,63.3,49.9,59.6z"/>
		<path class="st1" d="M47.8,53.1h16.9c-0.4,2.2-1.1,4.5-2,6.5H49.9C49,57.6,48.3,55.3,47.8,53.1z"/>
		<path class="st3" d="M64.7,52.8L64.7,52.8c0,0.1,0,0.2-0.1,0.3H47.8c0-0.1,0-0.2-0.1-0.3l0,0c0.2-0.2,0.5-0.4,0.7-0.6
			c1.4-1.4,2.8-3.2,4-5H60c1.2,1.8,2.6,3.6,4,5C64.3,52.4,64.5,52.6,64.7,52.8z"/>
		<path class="st1" d="M60,47.1h-7.5c2.2-3.3,3.7-6.9,3.8-9.4C56.3,40.2,57.8,43.8,60,47.1z"/>
		<path class="st1" d="M56.2,25.3c-3.3,0-6,2.7-6,6c0,1.3,0.4,2.5,1.1,3.5v0l4.8,2.9l4.8-2.9v0c0.7-1,1.1-2.2,1.1-3.5
			C62.2,28,59.5,25.3,56.2,25.3z"/>
		<path class="st0" d="M73.9,42.3c5,5,5.5,9.9,2.8,12.6c-3.6,3.6-9,0.8-12.6-2.8c-3.5-3.5-7.8-10.2-7.8-14.4c0,0,0-0.1,0-0.1
			c0-1,0.3-1.7,0.8-2.3c0.8-0.8,2.3-1,4-0.6C65,35.5,70.4,38.9,73.9,42.3z"/>
		<path class="st0" d="M56.2,37.6c0,0,0,0.1,0,0.1c0,4.4-4.4,11-7.8,14.4c-3.6,3.6-9.1,6.4-12.6,2.8c-2.7-2.7-2.2-7.6,2.8-12.6
			c3.5-3.5,8.9-6.8,12.8-7.6c1.8-0.4,3.2-0.2,4,0.6C56,35.9,56.2,36.6,56.2,37.6z"/>
		<path d="M73.1,48.1c0.5,0,1-0.4,1-1c0-0.5-0.4-1-1-1c-0.5,0-1,0.4-1,1C72.1,47.7,72.6,48.1,73.1,48.1z M39.4,48.1c0.5,0,1-0.4,1-1
			c0-0.5-0.4-1-1-1c-0.5,0-1,0.4-1,1C38.4,47.7,38.8,48.1,39.4,48.1z M33.3,49.3c-0.5,2.5,0.2,4.7,1.8,6.3c1.3,1.3,2.9,1.9,4.7,1.9
			c2.3,0,4.8-1,7.3-3c1,4.3,3.8,11.4,8.1,12.4v1.1c0,0.5,0.4,1,1,1c0.5,0,1-0.4,1-1V67c4.3-1,7.1-8.1,8.1-12.4c2.5,2,5,3,7.3,3
			c1.8,0,3.4-0.6,4.7-1.9c1.6-1.6,2.2-3.9,1.8-6.3c-0.5-2.5-2.1-5.2-4.6-7.7c-3.3-3.3-8.2-6.3-12-7.5c0.4-0.9,0.6-1.8,0.6-2.8
			c0-3-1.9-5.5-4.5-6.5c1-2.6,3.6-4.4,6.5-4.4c0.5,0,1-0.4,1-1s-0.4-1-1-1c-3.8,0-7.2,2.4-8.4,6c-0.2,0-0.3,0-0.5,0
			c-0.2,0-0.3,0-0.5,0c-1.2-3.6-4.6-6-8.4-6c-0.5,0-1,0.4-1,1s0.4,1,1,1c2.9,0,5.4,1.8,6.5,4.4c-2.6,1-4.5,3.5-4.5,6.5
			c0,1,0.2,2,0.6,2.8C44.2,35.9,34.7,42.3,33.3,49.3z M56.2,42.1c0.5,1.3,1.2,2.6,2,4h-4C55.1,44.7,55.8,43.4,56.2,42.1z M53,48.1
			h6.5c1,1.4,2,2.8,3.1,4H49.9C51,50.9,52,49.6,53,48.1z M62,58.6H50.5c-0.6-1.4-1.1-3-1.5-4.6h14.4C63.1,55.6,62.6,57.2,62,58.6z
			 M56.2,65.2c-1.6,0-3.3-1.7-4.8-4.6h9.6C59.6,63.5,57.8,65.2,56.2,65.2z M77.2,49.7c0.3,1.8-0.1,3.4-1.2,4.6
			c-1.1,1.1-2.5,1.5-4.2,1.3c-4.4-0.6-8.5-5.2-10.9-9c-2.2-3.4-3.6-6.7-3.6-8.9c0,0,0,0,0,0c0,0,0-0.1,0-0.1c0,0,0,0,0,0
			c0-0.7,0.2-1.3,0.5-1.6c0.3-0.3,0.9-0.5,1.7-0.5c0.4,0,0.9,0.1,1.5,0.2c0,0,0,0,0,0c3.6,0.8,8.9,3.9,12.3,7.3
			C75.4,45.3,76.8,47.6,77.2,49.7z M56.2,26.3c2.7,0,5,2.2,5,5c0,0.8-0.2,1.7-0.6,2.4c-1.9-0.3-3.3,0.1-4.3,1c0,0-0.1,0.1-0.1,0.1
			c0,0-0.1-0.1-0.1-0.1c-0.9-0.9-2.4-1.3-4.3-1c-0.4-0.7-0.6-1.5-0.6-2.4C51.3,28.5,53.5,26.3,56.2,26.3z M51.6,35.7
			c0.5-0.1,1-0.2,1.5-0.2c0.7,0,1.3,0.2,1.7,0.5c0.3,0.3,0.5,0.9,0.5,1.6v0c0,0,0,0.1,0,0.1v0c0,2.1-1.4,5.5-3.6,8.9
			c-2.4,3.7-6.5,8.4-10.9,9c-1.7,0.2-3.1-0.2-4.2-1.3c-1.1-1.1-1.6-2.7-1.2-4.6C36.5,43.3,46.4,36.8,51.6,35.7z M42.9,45.1
			c2.3-2.1,5.3-4,7.8-5c0.5-0.2,0.8-0.8,0.6-1.3c-0.2-0.5-0.8-0.8-1.3-0.6c-2.8,1.1-6,3.2-8.4,5.4c-0.4,0.4-0.4,1-0.1,1.4
			C41.9,45.4,42.5,45.5,42.9,45.1z M61.7,40.1c2.6,1,5.6,2.9,7.9,5c0.4,0.4,1,0.3,1.4-0.1c0.4-0.4,0.3-1-0.1-1.4
			c-2.5-2.2-5.7-4.3-8.5-5.4c-0.5-0.2-1.1,0.1-1.3,0.6S61.2,39.9,61.7,40.1z"/>
	</g>
</g>
</svg>
