<?xml version="1.0" encoding="utf-8"?>
<!-- Generator: Adobe Illustrator 24.0.2, SVG Export Plug-In . SVG Version: 6.00 Build 0)  -->
<svg version="1.1" id="Layer_1" xmlns="http://www.w3.org/2000/svg" xmlns:xlink="http://www.w3.org/1999/xlink" x="0px" y="0px"
	 viewBox="0 0 100 100" style="enable-background:new 0 0 100 100;" xml:space="preserve">
<style type="text/css">
	.st0{fill:#EEEEEE;}
	.st1{fill:#FBB54D;}
</style>
<g>
	<path d="M85.5,14.7C76.1,5.3,63.5,0,50.1,0S24.2,5.2,14.7,14.6C-3.5,32.8-4.8,61.9,11.4,81.7c-2.2,4.6-4.9,7.6-7.9,9.1
		c-1.8,0.9-2.8,2.9-2.6,4.9c0.3,2,1.9,3.6,3.9,3.9c1.1,0.2,2.3,0.3,3.5,0.3l0,0c6.1,0,12.6-2.1,18-5.8C33.5,98,41.7,100,50,100
		c13.4,0,25.9-5.2,35.4-14.6C94.8,76,100,63.4,100,50S94.9,24.1,85.5,14.7z"/>
	<path class="st0" d="M81.5,81.4c-8.4,8.4-19.5,13-31.4,13c-7.9,0-15.7-2.1-22.5-6.1c-0.4-0.3-0.9-0.4-1.4-0.4
		c-0.6,0-1.2,0.2-1.7,0.6c-6.4,5-12.9,5.7-15.7,5.8c3.4-2.5,6.2-6.4,8.6-11.8c0.4-1,0.3-2.2-0.5-3C1.4,62,2.2,35.3,18.8,18.8
		c8.4-8.4,19.5-13,31.4-13s23,4.6,31.4,13C98.8,35.9,98.8,64.1,81.5,81.4z"/>
	<path d="M62.8,27.1c-4.5,0-8.8,1.8-12,5l-0.7,0.7l-0.7-0.7c-3.2-3.2-7.5-5-12-5s-8.8,1.8-11.9,4.9c-3.2,3.2-5,7.5-4.9,12
		c0,4.5,1.8,8.8,5,12l22.5,22.6c0.5,0.5,1.3,0.8,2,0.8s1.4-0.3,2-0.8L74.8,56c3.2-3.2,5-7.5,5-12s-1.8-8.8-4.9-12
		C71.6,28.9,67.3,27.1,62.8,27.1z"/>
	<path class="st1" d="M70.7,52L50.1,72.6L29.5,52c-2.1-2.1-3.3-5-3.3-8s1.2-5.8,3.3-8s4.9-3.3,8-3.3c3,0,5.8,1.2,8,3.3l2.7,2.7
		c1.1,1.1,2.9,1.1,4,0l2.7-2.7c2.1-2.1,5-3.3,8-3.3s5.8,1.2,8,3.3c2.1,2.1,3.3,5,3.3,8C74.1,47,72.9,49.9,70.7,52z"/>
</g>
</svg>
