<?xml version="1.0" encoding="utf-8"?>
<!-- Generator: Adobe Illustrator 24.0.2, SVG Export Plug-In . SVG Version: 6.00 Build 0)  -->
<svg version="1.1" id="Layer_1" xmlns="http://www.w3.org/2000/svg" xmlns:xlink="http://www.w3.org/1999/xlink" x="0px" y="0px"
	 viewBox="0 0 100 100" style="enable-background:new 0 0 100 100;" xml:space="preserve">
<path d="M85.3,14.7C75.9,5.2,63.4,0,50,0S24.1,5.2,14.6,14.6C-3.6,32.9-4.9,62,11.3,81.7c-2.2,4.6-4.9,7.6-7.9,9.1
	c-1.8,0.9-2.8,2.9-2.6,4.9c0.3,2,1.9,3.6,3.9,3.9c1.1,0.2,2.3,0.3,3.5,0.3l0,0c6.1,0,12.6-2.1,18-5.8c7.2,3.9,15.4,5.9,23.7,5.9
	c13.4,0,25.9-5.2,35.4-14.6S100,63.4,100,50S94.8,24.1,85.3,14.7z M81.3,81.4c-8.4,8.4-19.5,13-31.4,13c-7.9,0-15.7-2.1-22.5-6.1
	c-0.4-0.3-0.9-0.4-1.4-0.4c-0.6,0-1.2,0.2-1.7,0.6c-6.4,5-12.9,5.7-15.7,5.8c3.4-2.5,6.2-6.4,8.6-11.8c0.4-1,0.3-2.2-0.5-3
	C1.3,61.8,2.1,35.2,18.6,18.6c8.4-8.4,19.5-13,31.4-13c11.9,0,23,4.6,31.4,13C98.6,35.9,98.6,64.1,81.3,81.4z M62.7,27.1
	c-4.5,0-8.8,1.8-12,5L50,32.8l-0.7-0.7c-3.2-3.2-7.5-5-12-5c-4.5,0-8.8,1.8-11.9,4.9c-3.2,3.2-5,7.5-4.9,12c0,4.5,1.8,8.8,5,12
	L48,78.6c0.5,0.5,1.3,0.8,2,0.8s1.4-0.3,2-0.8L74.6,56c3.2-3.2,5-7.5,5-12c0-4.5-1.8-8.8-4.9-12C71.4,28.9,67.2,27.1,62.7,27.1z
	 M70.6,52L50,72.6L29.4,52c-2.1-2.1-3.3-5-3.3-8c0-3,1.2-5.8,3.3-8s4.9-3.3,8-3.3c3,0,5.8,1.2,8,3.3l2.7,2.7c1.1,1.1,2.9,1.1,4,0
	l2.7-2.7c2.1-2.1,5-3.3,8-3.3c3,0,5.8,1.2,8,3.3c2.1,2.1,3.3,5,3.3,8C73.9,47,72.8,49.9,70.6,52z"/>
</svg>
