<?xml version="1.0" encoding="utf-8"?>
<!-- Generator: Adobe Illustrator 24.0.2, SVG Export Plug-In . SVG Version: 6.00 Build 0)  -->
<svg version="1.1" id="Layer_1" xmlns="http://www.w3.org/2000/svg" xmlns:xlink="http://www.w3.org/1999/xlink" x="0px" y="0px"
	 viewBox="0 0 512 512" style="enable-background:new 0 0 512 512;" xml:space="preserve">
<style type="text/css">
	.st0{fill:#84D2F4;}
	.st1{fill:#57B7EB;}
	.st2{fill:#4891D3;}
	.st3{fill:#F9E109;}
	.st4{fill:#FCBC04;}
	.st5{fill:#A1D51C;}
	.st6{fill:#7AB92D;}
	.st7{fill:#C4F236;}
	.st8{fill:#F89C8D;}
	.st9{fill:#F8664F;}
	.st10{fill:#E59730;}
	.st11{fill:none;}
</style>
<g>
	<circle class="st0" cx="256" cy="256.3" r="157.2"/>
	<path class="st1" d="M305.7,355.6c-86.7,0.1-157.1-70-157.2-156.8c0-24.6,5.7-48.8,16.7-70.7c-70.8,50.1-87.6,148.2-37.5,219.1
		s148.2,87.6,219.1,37.5c21.2-15,38.3-34.9,49.8-58.1C370,345.4,338.2,355.6,305.7,355.6z"/>
	<circle class="st1" cx="256" cy="256.3" r="115.9"/>
	<path class="st2" d="M295.3,346.9c-10.8-0.8-21.4-2.7-31.7-5.8l-9-9c1.7-3.2,1.2-7.1-1.4-9.7l-8.2-8.2c0.4-0.8,0.8-1.4,1.4-2.1
		c3.2-3.2,3.2-8.5,0-11.7l-11.7-11.7c-1.2-1.1-2.7-1.9-4.4-2.1c2.7-3.2,2.5-8-0.5-11L218,264c-1.2-1.1-2.7-1.9-4.3-2.1
		c11.7-4.4,20.7-14,24.3-26l5.6-18.8c6.2-20.8-5.2-42.9-25.8-49.7c19.7-3.9,40.1-2.4,59.1,4.2c-7.9,4.4-10.8,14.3-6.5,22.3
		c1.5,2.7,3.7,5,6.5,6.5c0.5,6,3.7,11.4,8.6,14.9c-0.3,1.3-0.4,2.5-0.5,3.8c0,13.7,11.1,24.8,24.8,24.8c0,0.8,0.1,1.7,0.2,2.5
		c-1.6,0.8-3.1,1.8-4.4,3.1c-6.5-6.5-17-6.5-23.4,0c-6.5,6.5-6.5,17,0,23.4l-11.7,11.7l23.4,23.4l11.7-11.7
		c6.6,6.4,17.1,6.2,23.4-0.4c6.2-6.4,6.2-16.6,0-23c1.3-1.3,2.3-2.8,3.1-4.4c8.1,1.3,16.2-2,21.2-8.4c1.3,6.9,2,14,2,21.1
		c0,17.8-4.1,35.4-12.1,51.3c41.5-48,36.2-120.5-11.8-162s-120.5-36.2-162,11.8s-36.2,120.5,11.8,162c42.7,36.9,106,37.3,149.2,0.9
		C318.8,347.1,307,347.7,295.3,346.9L295.3,346.9z M159.5,205c-0.8,1.5-1.5,3-2.1,4.6c-0.2-3.2-0.5-6.4-0.6-9.6
		c3.3-3.3,6.8-6.5,10.5-9.4L159.5,205z M206.3,264L185,285.3c-7.1-9.7-12.9-20.3-17.5-31.4c7.4,6.9,17.2,10.8,27.3,10.8h4.6
		C201.8,264.6,204.1,264.4,206.3,264L206.3,264z"/>
	<g>
		<path class="st1" d="M462.9,405.2c-13.3,0-24-10.8-24-24c0-0.3,0-0.5,0-0.8l7.4-206.9h33.1l7.4,206.9c0.5,13.2-9.9,24.4-23.2,24.8
			C463.4,405.2,463.2,405.2,462.9,405.2z"/>
		<path class="st2" d="M479.4,380.4c-13.3,0-24-10.8-24-24c0-0.3,0-0.5,0-0.8l5-141.3c7.9-1.5,14.9-5.7,19.9-12l-1-28.8h-33.1
			L439,380.4c-0.5,13.2,9.8,24.3,23.1,24.8c13.2,0.5,24.3-9.8,24.8-23.1c0-0.6,0-1.2,0-1.8l0-1.3
			C484.4,379.9,481.9,380.4,479.4,380.4L479.4,380.4z"/>
		<path class="st0" d="M462.9,99L462.9,99c18.3,0,33.1,14.8,33.1,33.1v33.1c0,18.3-14.8,33.1-33.1,33.1l0,0
			c-18.3,0-33.1-14.8-33.1-33.1v-33.1C429.8,113.9,444.6,99,462.9,99z"/>
		<path class="st1" d="M479.4,173.5c-18.3,0-33.1-14.8-33.1-33.1v-33.1c0.1-1.3,0.2-2.6,0.4-3.9c-10.4,5.8-16.9,16.8-16.9,28.7v33.1
			c0,18.2,14.7,33,33,33.1c16.8,0,30.9-12.5,32.9-29.2C490.7,172,485.1,173.5,479.4,173.5z"/>
	</g>
	<g>
		<path class="st1" d="M65.7,173.5H32.6l-7.4,206.9c-0.5,13.2,9.8,24.3,23.1,24.8c13.2,0.5,24.3-9.8,24.8-23.1c0-0.6,0-1.2,0-1.8
			L65.7,173.5z"/>
		<path class="st2" d="M65.7,380.4c-13.3,0-24-10.8-24-24c0-0.3,0-0.5,0-0.8l5-141.3c7.9-1.5,14.9-5.7,19.9-12l-1-28.8H32.6
			l-7.4,206.9c-0.5,13.2,9.8,24.3,23.1,24.8c13.2,0.5,24.3-9.8,24.8-23.1c0-0.6,0-1.2,0-1.8l0-1.3C70.6,379.9,68.2,380.4,65.7,380.4
			z"/>
		<path class="st0" d="M16,132.1h66.2l0,0v33.1c0,18.3-14.8,33.1-33.1,33.1S16,183.5,16,165.2V132.1L16,132.1z"/>
		<path class="st1" d="M65.7,173.5c-18.3,0-33.1-14.8-33.1-33.1v-8.3H16v33.1c0,18.2,14.7,33,33,33.1c16.8,0,30.9-12.5,32.9-29.2
			C76.9,172,71.3,173.5,65.7,173.5z"/>
		<path class="st1" d="M24.3,148.7c-4.6,0-8.3-3.7-8.3-8.3V90.8c0-4.6,3.7-8.3,8.3-8.3s8.3,3.7,8.3,8.3v49.7
			C32.6,145,28.8,148.7,24.3,148.7z"/>
		<g>
			<path class="st0" d="M73.9,148.7c-4.6,0-8.3-3.7-8.3-8.3V90.8c0-4.6,3.7-8.3,8.3-8.3c4.6,0,8.3,3.7,8.3,8.3v49.7
				C82.2,145,78.5,148.7,73.9,148.7z"/>
			<path class="st0" d="M49.1,148.7c-4.6,0-8.3-3.7-8.3-8.3V90.8c0-4.6,3.7-8.3,8.3-8.3s8.3,3.7,8.3,8.3v49.7
				C57.4,145,53.7,148.7,49.1,148.7z"/>
		</g>
	</g>
	<g>
		<path class="st3" d="M214.6,255.7l-58.5,58.5c-3.2,3.2-3.2,8.5,0,11.7l11.7,11.7c3.2,3.2,8.5,3.2,11.7,0c3.2-3.2,8.5-3.2,11.7,0
			c0,0,0,0,0,0l23.4,23.4c3.2,3.2,8.5,3.2,11.7,0l35.1-35.1c3.2-3.2,3.2-8.5,0-11.7L238,290.8c-3.2-3.2-3.2-8.5,0-11.7c0,0,0,0,0,0
			c3.2-3.2,3.2-8.5,0-11.7l-11.7-11.7C223.1,252.5,217.9,252.5,214.6,255.7L214.6,255.7z"/>
		<path class="st4" d="M261.4,314.2L238,290.8c-3.2-3.2-3.2-8.5,0-11.7c0,0,0,0,0,0c3.2-3.2,3.2-8.5,0-11.7l-2.4-2.4l-44.4,44.4
			c-8.8,8.7-22.6,9.7-32.4,2.2l-2.7,2.7c-3.2,3.2-3.2,8.5,0,11.7l11.7,11.7c3.2,3.2,8.5,3.2,11.7,0c3.2-3.2,8.5-3.2,11.7,0
			c0,0,0,0,0,0l23.4,23.4c3.2,3.2,8.5,3.2,11.7,0l35.1-35.1C264.7,322.7,264.7,317.4,261.4,314.2L261.4,314.2z"/>
		<path class="st5" d="M367.7,235.6c0-4.3-1.2-8.5-3.3-12.2c11.6-7.4,15-22.7,7.6-34.3c-4.5-7.1-12.4-11.5-20.8-11.5
			c0-13.7-11-24.8-24.7-24.8c-9.1,0-17.5,4.9-21.8,12.9c-6.5-6.4-17-6.2-23.3,0.3c-6.4,6.5-6.2,17,0.3,23.3c1,1,2.2,1.9,3.5,2.6
			c0.5,6,3.7,11.4,8.6,14.9c-0.3,1.3-0.4,2.5-0.5,3.8c0,13.7,11.1,24.8,24.8,24.8c0,13.7,11.1,24.8,24.8,24.8
			S367.7,249.3,367.7,235.6L367.7,235.6z"/>
		<path class="st6" d="M359.4,235.6c-13.7,0-24.8-11.1-24.8-24.8c-13.7,0-24.8-11.1-24.8-24.8c0.1-1.3,0.2-2.6,0.5-3.8
			c-4.9-3.5-8-8.9-8.6-14.9c-2.5-1.4-4.6-3.4-6.1-5.8c-9-1.4-17.4,4.8-18.8,13.8c-1.1,6.8,2.3,13.6,8.3,16.9
			c0.5,6,3.7,11.4,8.6,14.9c-0.3,1.3-0.4,2.5-0.5,3.8c0,13.7,11.1,24.8,24.8,24.8c0,13.7,11.1,24.8,24.8,24.8s24.8-11.1,24.8-24.8
			c0-0.5-0.1-1-0.1-1.5C365,235.1,362.2,235.6,359.4,235.6z"/>
		<path class="st3" d="M231.2,280.5L172.7,339c-3.2,3.2-3.2,8.5,0,11.7l11.7,11.7c3.2,3.2,8.5,3.2,11.7,0c3.2-3.2,8.5-3.2,11.7,0
			c0,0,0,0,0,0l23.4,23.4c3.2,3.2,8.5,3.2,11.7,0l35.1-35.1c3.2-3.2,3.2-8.5,0-11.7l-23.4-23.4c-3.2-3.2-3.2-8.5,0-11.7c0,0,0,0,0,0
			c3.2-3.2,3.2-8.5,0-11.7l-11.7-11.7C239.6,277.3,234.4,277.3,231.2,280.5L231.2,280.5z"/>
		<path class="st7" d="M337.3,264.6c6.6-6.4,6.8-16.8,0.4-23.4c-6.4-6.6-16.8-6.8-23.4-0.4c-0.1,0.1-0.3,0.3-0.4,0.4
			c-6.4-6.6-16.8-6.8-23.4-0.4c-6.6,6.4-6.8,16.8-0.4,23.4c0.1,0.1,0.3,0.3,0.4,0.4l-11.7,11.7l23.4,23.4l11.7-11.7
			c6.6,6.4,17.1,6.2,23.4-0.4C343.5,281.1,343.5,271,337.3,264.6z"/>
		<path class="st5" d="M337.3,271.4c-6.5,6.5-16.9,6.5-23.4,0c-6.5,6.5-16.9,6.5-23.4,0l-3.4-3.4l-8.3,8.3l23.4,23.4l11.7-11.7
			c6.6,6.4,17,6.2,23.4-0.3c5.1-5.3,6.2-13.3,2.6-19.7C339.2,269.2,338.3,270.4,337.3,271.4L337.3,271.4z"/>
		<path class="st4" d="M271.4,332.5l-5.1,5.1c-16.2,16.2-42.4,16.2-58.5,0c-3.2-3.2-8.5-3.2-11.7,0c0,0,0,0,0,0
			c-3.2,3.2-8.5,3.2-11.7,0l-5.1-5.1l-6.6,6.6c-3.2,3.2-3.2,8.5,0,11.7l11.7,11.7c3.2,3.2,8.5,3.2,11.7,0c3.2-3.2,8.5-3.2,11.7,0
			c0,0,0,0,0,0l23.4,23.4c3.2,3.2,8.5,3.2,11.7,0l35.1-35.1c3.2-3.2,3.2-8.5,0-11.7L271.4,332.5z"/>
		<path class="st3" d="M218.3,157.3c22.1,2.8,37.7,22.9,35,44.9c-0.3,2.2-0.7,4.4-1.4,6.6l-5.6,18.8c-5.1,17-20.8,28.7-38.6,28.7
			h-4.6c-22.2,0-40.3-18-40.3-40.3c0-6.7,1.7-13.4,4.9-19.3L178,178C185.9,163.4,201.9,155.2,218.3,157.3L218.3,157.3z"/>
		<path class="st4" d="M216,223.2h-4.6c-19.7,0-36.5-14.2-39.7-33.6l-3.9,7.1c-10.6,19.5-3.4,44,16.1,54.6
			c5.9,3.2,12.5,4.9,19.3,4.9h4.6c17.8,0,33.5-11.7,38.6-28.7l5.6-18.8c1.1-3.8,1.7-7.8,1.7-11.8C247.7,212.7,232.8,223.1,216,223.2
			z"/>
		<circle class="st8" cx="206.3" cy="223.2" r="16.6"/>
		<path class="st9" d="M216,223.2h-4.6c-7.2,0-14.3-1.9-20.6-5.6c-3.2,8.6,1.2,18.1,9.8,21.3s18.1-1.2,21.3-9.8
			c0.7-1.9,1.1-3.9,1-5.9c0-0.2,0-0.4-0.1-0.6C220.6,223,218.3,223.2,216,223.2L216,223.2z"/>
		<circle class="st10" cx="213.6" cy="324.9" r="8.3"/>
		<circle class="st10" cx="242.9" cy="339" r="8.3"/>
		<circle class="st3" cx="330.5" cy="181.8" r="8.3"/>
		<circle class="st6" cx="305.7" cy="330.8" r="8.3"/>
		<circle class="st3" cx="347" cy="206.6" r="8.3"/>
	</g>
	<rect class="st11" width="512" height="512"/>
</g>
</svg>
