<svg xmlns="http://www.w3.org/2000/svg" viewBox="0 0 189 189"><defs><style>.cls-1{fill:#ffd54f;}.cls-2{fill:#ffe082;}.cls-3{fill:none;}</style></defs><title>icon</title><g id="Layer_2" data-name="Layer 2"><g id="Layer_1-2" data-name="Layer 1"><path class="cls-1" d="M184.5,61.78a36,36,0,0,0-36-36c-9.5,0-32.54,7.8-54,18.11C73,33.58,50,25.78,40.5,25.78a36,36,0,0,0,0,72,181.78,181.78,0,0,0,0,63h0q26.69,2.41,54,2.44t54-2.44h0a180.64,180.64,0,0,0,2.75-31.5,180.64,180.64,0,0,0-2.75-31.5A36,36,0,0,0,184.5,61.78Z"/><path class="cls-2" d="M9,61.78A31.43,31.43,0,0,0,19.12,84.89,35.19,35.19,0,0,1,14,73.82a36,36,0,0,1,8.53-33.28,34.89,34.89,0,0,1,18.1-10.26H40.5A31.53,31.53,0,0,0,9,61.78Z"/><path class="cls-2" d="M170.68,84.12A31.48,31.48,0,0,0,148.5,30.28c-.37,0-.77,0-1.19,0a34.8,34.8,0,0,1,19.28,10.51,35.85,35.85,0,0,1,8.51,33.27A35.43,35.43,0,0,1,170.68,84.12Z"/><path d="M178.07,89.41c.19-.2.38-.4.56-.61s.48-.54.71-.81.35-.4.51-.61.48-.6.72-.9l.44-.57.81-1.14.27-.39c.35-.52.69-1,1-1.57.1-.16.19-.33.28-.49q.35-.57.66-1.14l.34-.65.53-1c.12-.24.23-.48.34-.72s.31-.67.45-1,.21-.5.32-.76.27-.66.39-1,.2-.53.29-.79.23-.68.34-1,.17-.54.26-.81.2-.69.29-1,.15-.55.22-.82.17-.71.24-1.07l.18-.82c.07-.37.14-.74.2-1.12s.09-.53.13-.81.11-.78.15-1.17.07-.52.09-.78c0-.44.07-.88.1-1.31,0-.23,0-.45,0-.67,0-.66.05-1.33.05-2a40.55,40.55,0,0,0-40.5-40.5c-.39,0-.8,0-1.22,0H147C136.51,22,115.55,29,94.5,38.9c-22.09-10.42-44.09-17.62-54-17.62a40.5,40.5,0,0,0-5.23,80.66,186.1,186.1,0,0,0,.8,59.62,4.49,4.49,0,0,0,4,3.7c18,1.63,36.33,2.46,54.43,2.46s36.38-.83,54.39-2.45a4.51,4.51,0,0,0,4-3.78,186.14,186.14,0,0,0,2.81-32.21,186.18,186.18,0,0,0-2-27.34l.5-.07.86-.14c.36,0,.71-.12,1.07-.19l.85-.17c.35-.07.7-.16,1.05-.24s.56-.13.83-.21.71-.19,1.05-.3l.8-.23,1.07-.37.74-.25,1.16-.46.6-.25c.58-.24,1.15-.5,1.71-.77l.35-.18c.45-.22.89-.44,1.33-.68l.63-.35,1-.59c.23-.13.45-.28.67-.42l.92-.59.67-.46.86-.62c.23-.16.45-.33.67-.5l.82-.64.65-.54.78-.68.63-.57.74-.71.6-.59C177.6,89.92,177.83,89.66,178.07,89.41ZM44.37,156.6a177.26,177.26,0,0,1,.56-58,4.5,4.5,0,0,0-4.43-5.28,31.5,31.5,0,0,1,0-63c7.55,0,25.36,5.7,43.62,13.78-3.44,1.79-6.76,3.63-9.9,5.47a4.5,4.5,0,1,0,4.56,7.76C84.34,54,90.28,50.89,96.29,48c0,0,.11,0,.16-.06a279.08,279.08,0,0,1,32.32-13.17,95,95,0,0,1,17.39-4.34l.12,0,1-.08.22,0,1,0a31.5,31.5,0,0,1,0,63l-4.88,0c-14.49.08-44.64.24-66.38-3.37a4.5,4.5,0,1,0-1.48,8.88c6.11,1,12.83,1.74,19.66,2.25-.43,9.37-.67,18.83-.67,28.22,0,9.78.26,19.66.73,29.44h-1C77.85,158.72,61,158,44.37,156.6Zm62.38-27.32c0-9.15.23-18.38.65-27.5,3.56.15,7.07.27,10.47.35-.4,9-.62,18.13-.62,27.15,0,9.62.25,19.34.71,29q-5.23.21-10.47.33C107,148.85,106.75,139,106.75,129.28Zm37.88,27.32c-4.88.42-9.78.76-14.69,1.06-.45-9.44-.69-19-.69-28.38,0-9,.22-18,.63-27l5.35,0c3.17,0,6,0,8.44,0h1a177.58,177.58,0,0,1,2.07,27A176.66,176.66,0,0,1,144.63,156.6Z"/><rect class="cls-3" width="189" height="189"/></g></g></svg>