<svg xmlns="http://www.w3.org/2000/svg" viewBox="0 0 189 189"><defs><style>.cls-1{fill:none;}.cls-2{fill:#ffc107;}.cls-3{fill:#ffeb3b;}</style></defs><title>icon</title><g id="Layer_2" data-name="Layer 2"><g id="Layer_1-2" data-name="Layer 1"><rect class="cls-1" width="189" height="189"/><path class="cls-2" d="M183.71,55.55A36,36,0,0,0,141,27.79c-8.12,1.71-27.27,8.63-46.54,17.53C75.23,36.42,56.08,29.5,48,27.79a36,36,0,1,0-14.9,70.44,63.38,63.38,0,0,0,7.44.65V162h108V98.88a63.38,63.38,0,0,0,7.44-.65A36,36,0,0,0,183.71,55.55Z"/><path class="cls-3" d="M171.72,84.28a32.57,32.57,0,0,0,3.17-4.09,31.5,31.5,0,0,0-29.65-48.52,34.08,34.08,0,0,1,18.51,7.91,36.06,36.06,0,0,1,12.51,30.63A35.4,35.4,0,0,1,171.72,84.28Z"/><path class="cls-3" d="M9.69,56.49A31.52,31.52,0,0,0,21.84,88.38c-.51-.58-1-1.18-1.48-1.8a34.94,34.94,0,0,1-6.64-15A36.13,36.13,0,0,1,24.18,39.51,35.48,35.48,0,0,1,37.3,31.67,31.57,31.57,0,0,0,9.69,56.49Z"/><path d="M188.11,54.62a40.55,40.55,0,0,0-48-31.24c-7.85,1.66-25.86,8-45.61,17-19.75-9-37.76-15.33-45.61-17a40.5,40.5,0,0,0-16.76,79.25,33.46,33.46,0,0,0,3.87.48V162a4.5,4.5,0,0,0,4.5,4.5h108A4.5,4.5,0,0,0,153,162V103.11a33.46,33.46,0,0,0,3.87-.48,40.5,40.5,0,0,0,31.24-48ZM117,103.38l0,54.12h-13.5l0-54.12Zm27,54.12H130.53l0-54.12H144Zm30.89-77.31A31.29,31.29,0,0,1,155,93.82a51.82,51.82,0,0,1-6.63.56H76.5a4.5,4.5,0,0,0,0,9H90l0,54.12H45V98.88a4.49,4.49,0,0,0-4.27-4.49A53.9,53.9,0,0,1,34,93.82,31.5,31.5,0,1,1,47,32.19c6.29,1.33,20.56,6.26,36.75,13.27-7.09,3.5-13.51,7-19.13,10.37a4.5,4.5,0,1,0,4.65,7.7A281.69,281.69,0,0,1,96.37,49.41h0c19.67-9.09,38.16-15.65,45.58-17.22a31.5,31.5,0,0,1,32.92,48Z"/></g></g></svg>