<svg xmlns="http://www.w3.org/2000/svg" viewBox="0 0 189 144"><defs><style>.cls-1{fill:#ffc107;}.cls-2{fill:#ffeb3b;}</style></defs><title>logo</title><g id="Layer_2" data-name="Layer 2"><g id="Layer_1-2" data-name="Layer 1"><path class="cls-1" d="M183.71,33.05A36,36,0,0,0,141,5.29C132.92,7,113.77,13.92,94.5,22.82,75.23,13.92,56.08,7,48,5.29a36,36,0,1,0-14.9,70.44,63.38,63.38,0,0,0,7.44.65V139.5h108V76.38a63.38,63.38,0,0,0,7.44-.65A36,36,0,0,0,183.71,33.05Z"/><path class="cls-2" d="M171.72,61.78a32.57,32.57,0,0,0,3.17-4.09A31.5,31.5,0,0,0,145.24,9.17a34.08,34.08,0,0,1,18.51,7.91,36.06,36.06,0,0,1,12.51,30.63A35.4,35.4,0,0,1,171.72,61.78Z"/><path class="cls-2" d="M9.69,34A31.52,31.52,0,0,0,21.84,65.88c-.51-.58-1-1.18-1.48-1.8a34.94,34.94,0,0,1-6.64-15A36.13,36.13,0,0,1,24.18,17,35.48,35.48,0,0,1,37.3,9.17,31.57,31.57,0,0,0,9.69,34Z"/><path d="M188.11,32.12a40.55,40.55,0,0,0-48-31.24c-7.85,1.66-25.86,8-45.61,17-19.75-9-37.76-15.33-45.61-17A40.5,40.5,0,0,0,32.13,80.13a33.46,33.46,0,0,0,3.87.48V139.5a4.5,4.5,0,0,0,4.5,4.5h108a4.5,4.5,0,0,0,4.5-4.5V80.61a33.46,33.46,0,0,0,3.87-.48,40.5,40.5,0,0,0,31.24-48ZM117,80.88,117,135h-13.5l0-54.12ZM144,135H130.53l0-54.12H144Zm30.89-77.31A31.29,31.29,0,0,1,155,71.32a51.82,51.82,0,0,1-6.63.56H76.5a4.5,4.5,0,0,0,0,9H90L90,135H45V76.38a4.49,4.49,0,0,0-4.27-4.49A53.9,53.9,0,0,1,34,71.32,31.5,31.5,0,1,1,47,9.69C53.32,11,67.59,16,83.78,23c-7.09,3.5-13.51,7-19.13,10.37A4.5,4.5,0,1,0,69.3,41,281.69,281.69,0,0,1,96.37,26.91h0C116.06,17.82,134.55,11.26,142,9.69a31.5,31.5,0,0,1,32.92,48Z"/></g></g></svg>